PathFileType	4	(X/Y/Z)	/Users/niels/Desktop/University/Third Semester/Perception and Action/Exam/Gymnastics Motion Tracking/Code for Gym Tracking/Analyzed Data/Webcam_Backflip/temp_id5_2_trajectory_Sports2D/temp_id5_2_trajectory_Sports2D_px_person00.trc
DataRate	CameraRate	NumFrames	NumMarkers	Units	OrigDataRate	OrigDataStartFrame	OrigNumFrames
29.8125	29.8125	11	22	m	29.8125	100	160
Frame#	Time	Hip			RHip			RKnee			RAnkle			RBigToe			RSmallToe			RHeel			LHip			LKnee			LAnkle			LBigToe			LSmallToe			LHeel			Neck			Head			Nose			RShoulder			RElbow			RWrist			LShoulder			LElbow			LWrist		
		X1	Y1	Z1	X2	Y2	Z2	X3	Y3	Z3	X4	Y4	Z4	X5	Y5	Z5	X6	Y6	Z6	X7	Y7	Z7	X8	Y8	Z8	X9	Y9	Z9	X10	Y10	Z10	X11	Y11	Z11	X12	Y12	Z12	X13	Y13	Z13	X14	Y14	Z14	X15	Y15	Z15	X16	Y16	Z16	X17	Y17	Z17	X18	Y18	Z18	X19	Y19	Z19	X20	Y20	Z20	X21	Y21	Z21	X22	Y22	Z22
100	3.354297693920335	0.8300615798326011	-0.5335050395874977	0.0	0.8333402911774157	-0.5313225125866454	0.0	0.8839777749383679	-0.6279641950393785	0.0	0.8708092811934747	-0.7417926079529483	0.0	0.9120022591924303	-0.7632425395286542	0.0	0.9029978272188206	-0.7676724261549416	0.0	0.8610303472202703	-0.758259141051309	0.0	0.8258492475943444	-0.5313920969188771	0.0	0.8265609245969754	-0.6359197453488622	0.0	0.7860775239590228	-0.7353748468910257	0.0	0.8210215378130165	-0.7665479305682658	0.0	0.8150519874870261	-0.7617301569646558	0.0	0.7750336923035026	-0.7496661846299613	0.0	0.8169217573122919	-0.38792348766032714	0.0	0.8257475631258469	-0.32343765625233983	0.0	0.848306871069114	-0.35814362042349474	0.0	0.8078709556569246	-0.4111244612904577	0.0	0.8116346943011657	-0.48158203693097734	0.0	0.832767416552481	-0.5394489839886794	0.0	0.8197402137846628	-0.4064379520491001	0.0	0.8266583834534432	-0.47427862229381884	0.0	0.852731959447117	-0.5226163110014986	0.0
101	3.3878406708595383	0.8303953531400922	-0.5361127621542855	0.0	0.8348204385188467	-0.5334630060630032	0.0	0.8801719333389343	-0.6333711388257076	0.0	0.8646233616886896	-0.7467435269237692	0.0	0.9055918529470012	-0.7684302987441117	0.0	0.896781210704214	-0.7725758560412175	0.0	0.8547396277084565	-0.7624834994311425	0.0	0.8255443739908872	-0.5339884819139549	0.0	0.8253717103074176	-0.6390166949318618	0.0	0.7867138581413834	-0.7386889967122535	0.0	0.8206711703763782	-0.7696534996857073	0.0	0.8151212172117057	-0.7649492670127944	0.0	0.7756611869233202	-0.7528851924191683	0.0	0.819456870050451	-0.38927008570767446	0.0	0.8274902171211074	-0.3253552552825971	0.0	0.8507677157094452	-0.35958357562318694	0.0	0.8115566015471758	-0.412136793321902	0.0	0.8154264779661292	-0.48171048827241814	0.0	0.8378030661789186	-0.5380843472372775	0.0	0.8206743568677992	-0.40836508729397863	0.0	0.8281805235620069	-0.47559665940330725	0.0	0.8555647242298674	-0.5201352152670385	0.0
102	3.421383647798742	0.8306698343737444	-0.5417309361753644	0.0	0.8363047180438634	-0.5386496069983455	0.0	0.8757269216538669	-0.6413798996576437	0.0	0.8590913893179966	-0.7541687773572663	0.0	0.9001370557520554	-0.7751832016427259	0.0	0.8914514503249077	-0.7790893813185529	0.0	0.8492404269655763	-0.7692380785535026	0.0	0.825327335644045	-0.5395055639898096	0.0	0.8242644337314073	-0.6448440037481002	0.0	0.786933654134502	-0.7443123911239606	0.0	0.8202688260775053	-0.7741979938479243	0.0	0.8150100950818759	-0.7696404686900675	0.0	0.7758033731271483	-0.7584886227176846	0.0	0.8221266298683714	-0.3937034976284585	0.0	0.8297588106266733	-0.3300929706468697	0.0	0.8534542083626089	-0.3640842201233362	0.0	0.8154938887958132	-0.41618572088955597	0.0	0.8195236002356254	-0.4845741078649079	0.0	0.8432834809898047	-0.5396874358164468	0.0	0.821957269049327	-0.413054311344519	0.0	0.829967680280582	-0.47954966797855303	0.0	0.8585277566331938	-0.5200198527944394	0.0
103	3.454926624737945	0.8311439931363143	-0.5497395650916352	0.0	0.8377822634433602	-0.5463534595422062	0.0	0.8707525112960596	-0.6513385803053378	0.0	0.8546629225889918	-0.7634518839264587	0.0	0.8959118209783334	-0.7828782555808461	0.0	0.8872060226143588	-0.7866535187922902	0.0	0.84501720456836	-0.7779306400551133	0.0	0.8253901570995285	-0.5473610950014827	0.0	0.8232514252086722	-0.6528079180346507	0.0	0.7867892324632165	-0.7517560622567467	0.0	0.8198816101421488	-0.7800382325438415	0.0	0.8147952472414671	-0.7756084182996401	0.0	0.7755225592862145	-0.7659193698509221	0.0	0.8248605597733186	-0.400740168011445	0.0	0.8325789032013342	-0.3372209359794469	0.0	0.8563116368742146	-0.3711892919050625	0.0	0.8194535514756415	-0.42279271945773045	0.0	0.8237115883647012	-0.48991995245160563	0.0	0.8489255078934971	-0.5441508195643984	0.0	0.8236165021964431	-0.4200930957400117	0.0	0.8322847881451727	-0.48581988614934485	0.0	0.8613855322533631	-0.5230512540105355	0.0
104	3.4884696016771484	0.8319688775505076	-0.5593628352374779	0.0	0.8391695463419598	-0.5558244380104853	0.0	0.8655368025141315	-0.6623831207204719	0.0	0.8513773191430065	-0.7737697786778529	0.0	0.8925518854278613	-0.7909582776333738	0.0	0.8836216762851303	-0.7947183523998202	0.0	0.8420786533901512	-0.7877118414601085	0.0	0.8257943996153778	-0.5568114656807651	0.0	0.8223789676509002	-0.6621647170904709	0.0	0.7863790767908307	-0.7603895024294406	0.0	0.8195117512981894	-0.7869750288598982	0.0	0.8145342449140445	-0.7826197038332952	0.0	0.774948019890912	-0.7744680395131995	0.0	0.8276156850750532	-0.40968902974997057	0.0	0.8358687185459222	-0.34614940403612693	0.0	0.8592977341669388	-0.38021066793052677	0.0	0.8232385060509562	-0.43133832255493026	0.0	0.8277405300342425	-0.49743808985121096	0.0	0.8543751002522274	-0.5512885151358785	0.0	0.8255909575017866	-0.4289011600481757	0.0	0.8350738180228584	-0.49403068988911264	0.0	0.8637011271330022	-0.529898792807374	0.0
105	3.522012578616352	0.8331197842702472	-0.5697238975912888	0.0	0.8403333338180274	-0.5661627099053462	0.0	0.8605070351570052	-0.673555429904311	0.0	0.8490395538610832	-0.7842407266349307	0.0	0.8894777837563167	-0.7989815568084312	0.0	0.8800752097678952	-0.8027859943558574	0.0	0.8401508354479182	-0.7976559405757586	0.0	0.8265198854692254	-0.5670116459657996	0.0	0.8217199920188643	-0.6720648787441751	0.0	0.7858130721358544	-0.7694887112414837	0.0	0.8191268324353473	-0.794661952502175	0.0	0.8142970264725248	-0.7903187544236504	0.0	0.7741802557522989	-0.7833698311763924	0.0	0.8303667609490576	-0.4197039614836757	0.0	0.8394888648285993	-0.3561263576710023	0.0	0.8623735468469658	-0.3902545719486728	0.0	0.82670932289315	-0.4410657599291215	0.0	0.831354958430559	-0.5066696340721499	0.0	0.8592164017715332	-0.5607028778966162	0.0	0.8277426088269689	-0.43873369205397766	0.0	0.8379537132454715	-0.5036888908932629	0.0	0.864976255933795	-0.5406233402217507	0.0
106	3.555555555555555	0.8344718525489646	-0.5799061158426714	0.0	0.8411407780709834	-0.5764074465921782	0.0	0.8561622132366439	-0.6839801066122615	0.0	0.8474126668259765	-0.7940771075601254	0.0	0.8863376330758085	-0.8065585200165822	0.0	0.8762012927175606	-0.8104088335171904	0.0	0.8389048433635504	-0.8069386644365121	0.0	0.8275843996048431	-0.5770907187831323	0.0	0.8213693728062659	-0.6816511632629169	0.0	0.7851758479967715	-0.7782482965531234	0.0	0.8186497273910232	-0.8025851349289057	0.0	0.8141256824077798	-0.7981784208742119	0.0	0.773269836011941	-0.7918284259951919	0.0	0.8331257501924219	-0.42987131065205736	0.0	0.843306902354557	-0.3662877352994205	0.0	0.8654914397489866	-0.4003588305232023	0.0	0.8297856822945872	-0.4510955855906115	0.0	0.8343173480475603	-0.5169167867435651	0.0	0.8629734931458775	-0.5716668667970546	0.0	0.830053358147049	-0.4487640506482781	0.0	0.8404738582562122	-0.5141145527463185	0.0	0.8649848504070526	-0.5542747864685861	0.0
107	3.5890985324947584	0.8359073050462337	-0.5890224827672734	0.0	0.8415429487796514	-0.5856166991608471	0.0	0.8529503138028467	-0.6929499429799328	0.0	0.8463308017733476	-0.8026449450474091	0.0	0.8832313472080583	-0.813245273086829	0.0	0.8721685581575765	-0.8171313129108687	0.0	0.8380795580754538	-0.8149043437320416	0.0	0.8290635601584689	-0.5861968556515378	0.0	0.8214655706515803	-0.6901662549270491	0.0	0.7845202121700904	-0.7858253430912472	0.0	0.8179718016575211	-0.8100725448236237	0.0	0.8139771257325239	-0.8055078596401469	0.0	0.7722596717304061	-0.7990332218690649	0.0	0.8359289879881457	-0.439287534542305	0.0	0.8472036996233261	-0.37573182630090574	0.0	0.8686066984951951	-0.4096435337043425	0.0	0.8324599792475823	-0.46049497737745526	0.0	0.8364579069926333	-0.527236601759651	0.0	0.8651692663862391	-0.583148250862641	0.0	0.8327019995537935	-0.458171814875155	0.0	0.8423431277856478	-0.5244119035725198	0.0	0.8639778805754873	-0.5689222223682416	0.0
108	3.622641509433962	0.8373770820003583	-0.5962824150388731	0.0	0.8416293062495266	-0.5929428165337309	0.0	0.8510929162649972	-0.6999155245482486	0.0	0.8457033092096202	-0.8094433372793168	0.0	0.8806845240638299	-0.8185124980975881	0.0	0.8686803943666535	-0.8224530059115425	0.0	0.8375072854715299	-0.8210642998429154	0.0	0.8310453445755858	-0.5935148158544058	0.0	0.8222385578145398	-0.6969863395533235	0.0	0.783906329096388	-0.7914554446909478	0.0	0.8170409486019584	-0.8163489153836279	0.0	0.8137412605107133	-0.8115312603011503	0.0	0.7712203787674945	-0.8042320910472637	0.0	0.8387863106174059	-0.4471072785935847	0.0	0.8510767266850696	-0.3836097074822628	0.0	0.8717102364253766	-0.4173646746526054	0.0	0.8347947458003442	-0.4683910198234004	0.0	0.8377292288032953	-0.5365604280808268	0.0	0.8654794384161446	-0.5939825938191373	0.0	0.8358817200319296	-0.4661682847620697	0.0	0.8435578343731611	-0.533579647024834	0.0	0.8625266032109975	-0.5823309211721607	0.0
109	3.656184486373165	0.8389150718553725	-0.6010892481957041	0.0	0.841608372302129	-0.5977512879990284	0.0	0.8504838885844757	-0.7045233403797453	0.0	0.8454407330039843	-0.8141057783676513	0.0	0.87932684863054	-0.8219209628563008	0.0	0.8665823663801365	-0.8259701086301109	0.0	0.8370813020698321	-0.8251214846241245	0.0	0.8336151422471819	-0.5983579136368833	0.0	0.8240372179138362	-0.7016291753741232	0.0	0.783439413566851	-0.7945426994981047	0.0	0.8159196237215216	-0.8206796128933339	0.0	0.8133007652306037	-0.8155183678976372	0.0	0.7702612640422275	-0.806819420191668	0.0	0.8416751288209119	-0.4526208416575824	0.0	0.8548638134069363	-0.3892312088475867	0.0	0.8748226517091953	-0.42289813503539486	0.0	0.8368792939376293	-0.4741052981264623	0.0	0.8382141948581471	-0.5439019486608739	0.0	0.8638835978020803	-0.6030966938086144	0.0	0.839587815169989	-0.4720362521636822	0.0	0.8443192914589387	-0.5406935706402788	0.0	0.8611647743822167	-0.5927997897601699	0.0
110	3.6897274633123684	0.8405997253275677	-0.6031335300345324	0.0	0.841704152728387	-0.5997328276137925	0.0	0.8507668544467045	-0.7066617107675952	0.0	0.8454230873869448	-0.816440892874438	0.0	0.8794749982968133	-0.8233365136175925	0.0	0.8662757102365765	-0.8275552282028832	0.0	0.836738329397854	-0.826983175796262	0.0	0.8368307803553676	-0.6003207161067938	0.0	0.8273066102546649	-0.703794042564796	0.0	0.783294087941275	-0.7947036117634986	0.0	0.814787485542671	-0.8225245160942125	0.0	0.8126361146354129	-0.8169293979697123	0.0	0.7695530460795923	-0.8063869571675891	0.0	0.8445787321919697	-0.4553616613644046	0.0	0.858550191391243	-0.3921680425462481	0.0	0.8779493231182207	-0.42576830805812105	0.0	0.8387933370039515	-0.4772140860611115	0.0	0.8380818982538969	-0.5485378843354066	0.0	0.8606970066281171	-0.6096719702201234	0.0	0.8435862846288276	-0.47522559907656475	0.0	0.8448526983094794	-0.5450428572852534	0.0	0.8601784454126654	-0.5994688385479283	0.0
